<svg width="20" height="20" viewBox="0 0 20 20" fill="none" xmlns="http://www.w3.org/2000/svg">
<path d="M9.98843 2.9119e-10C9.62994 2.9119e-10 9.27169 0.0192739 8.91524 0.0576967C8.58853 0.0910715 8.26582 0.145806 7.94745 0.212222C7.88584 0.225113 7.82419 0.238713 7.76258 0.25294C5.88679 0.680053 4.17399 1.6392 2.82957 3.01537C2.70455 3.14352 2.58216 3.27548 2.46248 3.41119C-1.16921 7.58087 -0.733369 13.9054 3.43597 17.5374C7.42757 21.0146 13.4359 20.7832 17.1484 17.0094C17.2737 16.8813 17.396 16.7493 17.5155 16.6136C19.1182 14.7883 20.0014 12.4416 20 10.0124C20 4.48265 15.5177 -4.17182e-05 9.98843 2.9119e-10ZM3.27441 3.51599C3.32714 3.46126 3.38186 3.40885 3.4356 3.3558C3.49766 3.29472 3.5594 3.23331 3.62281 3.17423C3.67854 3.12216 3.73594 3.07211 3.79301 3.02138C3.85741 2.96431 3.92149 2.90724 3.98757 2.85217C4.04563 2.8031 4.10537 2.75605 4.16477 2.70865C4.23152 2.65526 4.29825 2.60186 4.367 2.55046C4.42774 2.50474 4.48947 2.46035 4.55155 2.41696C4.62063 2.36756 4.69004 2.31684 4.76045 2.27078C4.82353 2.22806 4.88726 2.18667 4.95134 2.14562C5.02276 2.0999 5.09451 2.05485 5.16693 2.01213C5.23213 1.9732 5.29774 1.9349 5.36381 1.89732C5.4377 1.85526 5.51186 1.81422 5.58641 1.77416C5.65315 1.73858 5.7199 1.70374 5.78663 1.6697C5.86273 1.63132 5.93947 1.59427 6.01657 1.5579C6.08332 1.52619 6.15273 1.49448 6.22147 1.46445C6.2999 1.43107 6.37932 1.39769 6.45875 1.36432C6.52782 1.33595 6.59657 1.30825 6.66632 1.28155C6.74707 1.25085 6.82883 1.22214 6.9106 1.19344C6.98035 1.16907 7.0501 1.14471 7.12084 1.12168C7.20394 1.09498 7.2877 1.07029 7.37179 1.04592C7.44221 1.02556 7.51196 1.00454 7.58271 0.985516C7.60974 0.978507 7.63677 0.972833 7.6638 0.965825C6.67599 1.92506 5.94294 3.11553 5.53101 4.42946C4.73893 4.22054 3.97213 3.92542 3.24438 3.54936C3.25539 3.53769 3.26474 3.526 3.27441 3.51599ZM2.79453 4.05332C3.59616 4.4877 4.44622 4.82603 5.32711 5.06124C4.89527 6.56294 4.6686 8.11616 4.65333 9.67865H0.652059C0.724768 7.61821 1.47818 5.64 2.79453 4.05332ZM2.79453 15.9714C1.47826 14.3848 0.724851 12.4065 0.652059 10.3461H4.65333C4.6686 11.9086 4.89523 13.4618 5.32711 14.9636C4.44626 15.1988 3.5962 15.5371 2.79453 15.9714ZM7.58071 19.0406C7.5133 19.0236 7.44355 19.0016 7.37413 18.9812C7.2897 18.9565 7.20494 18.9318 7.12151 18.9048C7.0511 18.8821 6.98168 18.8577 6.91226 18.8334C6.83017 18.805 6.74807 18.7759 6.66698 18.7449C6.59757 18.7185 6.52916 18.6908 6.46041 18.6628C6.38065 18.6295 6.3009 18.5961 6.2218 18.5627C6.15373 18.5326 6.08598 18.5018 6.01857 18.4699C5.94081 18.4332 5.86339 18.3958 5.78497 18.3571C5.71822 18.3238 5.65148 18.2904 5.58474 18.254C5.50932 18.2135 5.43457 18.1722 5.35981 18.1295C5.29306 18.0925 5.22966 18.0544 5.16525 18.0156C5.09183 17.9716 5.01976 17.9262 4.94767 17.8798C4.88426 17.8395 4.82085 17.7984 4.75845 17.7563C4.68737 17.7083 4.61696 17.6582 4.54721 17.6081C4.48614 17.5644 4.42506 17.5207 4.365 17.4746C4.29592 17.4226 4.22818 17.3688 4.16077 17.3148C4.1017 17.2678 4.04296 17.221 3.98523 17.1726C3.91849 17.1172 3.85407 17.0594 3.78934 17.0021C3.7326 16.9516 3.67554 16.9019 3.62014 16.8506C3.5564 16.7912 3.49466 16.7294 3.43259 16.6683C3.37886 16.6153 3.32414 16.5629 3.27141 16.5084C3.26173 16.4981 3.25239 16.4875 3.24271 16.4774C3.97042 16.1012 4.73722 15.8059 5.52934 15.597C5.94136 16.9109 6.67437 18.1013 7.66213 19.0607C7.6351 19.0536 7.60774 19.0479 7.58071 19.0406ZM9.65476 19.331C8.22678 19.128 6.975 17.6375 6.18743 15.4364C7.32607 15.1815 8.48804 15.0447 9.65476 15.0283V19.331ZM9.65476 14.3608C8.41708 14.3771 7.18462 14.524 5.97785 14.7993C5.55883 13.3514 5.33779 11.8534 5.32077 10.3461H9.65476V14.3608ZM9.65476 9.67865H5.32077C5.33775 8.1714 5.55879 6.67337 5.97785 5.22545C7.18462 5.50066 8.41713 5.64768 9.65476 5.66399V9.67865ZM9.65476 4.9965C8.488 4.98023 7.32607 4.84344 6.18743 4.58832C6.975 2.38726 8.22678 0.896739 9.65476 0.69382V4.9965ZM17.1824 4.05332C18.4987 5.64004 19.2521 7.61825 19.3248 9.67865H15.3236C15.3083 8.11616 15.0817 6.56294 14.6499 5.06124C15.5307 4.82591 16.3807 4.48761 17.1824 4.05332ZM12.3936 0.983846C12.4637 1.0012 12.5334 1.02323 12.6028 1.04359C12.6873 1.06829 12.772 1.09298 12.8555 1.12002C12.9259 1.14271 12.9953 1.16707 13.0646 1.19143C13.1467 1.2198 13.2288 1.24884 13.31 1.27988C13.3794 1.30624 13.4478 1.33395 13.5165 1.36199C13.5963 1.39536 13.6761 1.42873 13.7552 1.46211C13.8233 1.49214 13.8909 1.52306 13.9584 1.55489C14.0361 1.59161 14.1136 1.62898 14.192 1.6677C14.2587 1.70107 14.3255 1.73445 14.3922 1.77082C14.4677 1.81121 14.5424 1.85259 14.6172 1.89531C14.6839 1.93236 14.7473 1.97041 14.8117 2.00912C14.8852 2.05317 14.9572 2.09857 15.0293 2.14495C15.0927 2.18534 15.1561 2.22639 15.2185 2.26845C15.2896 2.3165 15.3597 2.36623 15.4294 2.41629C15.4908 2.46001 15.5519 2.50407 15.6123 2.54979C15.6811 2.60152 15.7484 2.65526 15.8162 2.70933C15.8749 2.75605 15.934 2.80277 15.9917 2.8515C16.0584 2.9069 16.1228 2.96464 16.1876 3.02204C16.2443 3.07244 16.3014 3.12217 16.3568 3.17357C16.4205 3.23298 16.4823 3.29472 16.5443 3.3558C16.5981 3.40885 16.6528 3.46126 16.7056 3.51565C16.7153 3.526 16.7245 3.53669 16.7342 3.5467C16.0065 3.92291 15.2397 4.21816 14.4476 4.42712C14.0348 3.11307 13.3008 1.92272 12.3121 0.963822C12.3392 0.97083 12.3665 0.976505 12.3936 0.983846ZM10.3222 0.69382C11.7502 0.896739 13.0019 2.38726 13.7895 4.58832C12.6508 4.84331 11.4889 4.9801 10.3222 4.9965V0.69382ZM10.3222 5.66399C11.5599 5.64772 12.7923 5.50071 13.9991 5.22545C14.4181 6.67337 14.6392 8.1714 14.6562 9.67865H10.3222V5.66399ZM10.3222 10.3461H14.6562C14.6392 11.8534 14.4182 13.3514 13.9991 14.7993C12.7923 14.5241 11.5599 14.3771 10.3222 14.3608V10.3461ZM10.3222 19.331V15.0283C11.4889 15.0445 12.6508 15.1814 13.7895 15.4364C13.0019 17.6375 11.7502 19.128 10.3222 19.331ZM16.7025 16.5087C16.6498 16.5632 16.5954 16.6156 16.5417 16.6687C16.4796 16.7297 16.4176 16.7915 16.3538 16.8509C16.2984 16.9026 16.2414 16.951 16.1846 17.0028C16.1199 17.0602 16.0555 17.1175 15.9894 17.1729C15.9309 17.2217 15.8716 17.2687 15.8122 17.3161C15.7455 17.3696 15.6787 17.4229 15.61 17.4743C15.5493 17.5201 15.4875 17.5644 15.4254 17.6078C15.3563 17.6573 15.2869 17.7079 15.2165 17.754C15.1535 17.7968 15.0897 17.8381 15.0256 17.8789C14.9542 17.9249 14.8822 17.9694 14.8097 18.0124C14.7429 18.0514 14.6792 18.0894 14.6135 18.1271C14.5396 18.1692 14.4653 18.2103 14.3905 18.2503C14.3238 18.2859 14.2571 18.3207 14.1903 18.3547C14.1142 18.3931 14.0375 18.4302 13.9604 18.4666C13.8937 18.4983 13.8242 18.53 13.7555 18.56C13.6771 18.5934 13.5976 18.6267 13.5182 18.6601C13.4492 18.6882 13.3804 18.7162 13.3109 18.7425C13.2296 18.7736 13.1478 18.8026 13.0657 18.8311C12.9963 18.8554 12.9268 18.8797 12.8564 18.9024C12.7731 18.9295 12.6896 18.9541 12.6045 18.9785C12.5347 18.9992 12.4646 19.0199 12.3942 19.039C12.3673 19.0459 12.3402 19.0516 12.3132 19.0587C13.3009 18.0994 14.034 16.9089 14.4459 15.595C15.238 15.8039 16.0048 16.099 16.7325 16.4751C16.7216 16.4871 16.7122 16.4987 16.7025 16.5087ZM17.1824 15.9714C16.3808 15.5371 15.5307 15.1987 14.6499 14.9636C15.0817 13.4618 15.3083 11.9086 15.3236 10.3461H19.3248C19.2522 12.4065 18.4987 14.3848 17.1824 15.9714Z" fill="white"/>
</svg>
